<svg width="270" height="259" viewBox="0 0 270 259" fill="none" xmlns="http://www.w3.org/2000/svg">
<rect width="270" height="259" fill="white"/>
<path d="M138.318 250.259C206.976 250.259 262.635 194.6 262.635 125.941C262.635 57.2826 206.976 1.62378 138.318 1.62378C69.6589 1.62378 14 57.2826 14 125.941C14 194.6 69.6589 250.259 138.318 250.259Z" fill="#152535"/>
<path d="M90.1213 56.4218H105.895C116.41 56.4218 123.479 56.7723 127.101 57.5902C130.723 58.408 133.469 60.5111 135.397 63.8411C137.325 67.2294 137.792 72.6041 136.857 79.965C135.981 86.6833 134.579 91.24 132.651 93.5768C130.723 95.9136 127.276 97.3157 122.311 97.783C126.575 98.893 129.321 100.354 130.606 102.165C131.891 104.034 132.593 105.728 132.768 107.247C132.943 108.766 132.593 113.089 131.716 120.041L128.737 136.457H108.173L111.795 114.199C112.379 109.584 112.379 106.721 111.795 105.611C111.211 104.501 109.4 103.976 106.304 103.976L101.338 136.457H79.0215L90.0628 56.4218H90.1213ZM110.568 71.202L108.115 90.4806C110.627 90.4806 112.438 90.13 113.489 89.429C114.541 88.728 115.359 86.4496 115.884 82.6523L116.469 77.8619C116.819 75.1161 116.585 73.3051 115.709 72.4872C114.833 71.6109 113.139 71.202 110.568 71.202Z" fill="white"/>
<path d="M186.572 202.121L146.671 202.238L133.877 185.238L140.595 143.526L156.018 143.35L151.461 172.619L182.541 143.058L192.589 155.443L160.809 185.121L188.909 184.945L186.572 202.121Z" fill="#FF8E3C"/>
<path d="M78.962 144.285L118.454 144.051L131.248 161.052L124.53 202.705L109.165 202.88L113.722 173.612L82.7009 203.114L72.7695 190.729L104.375 161.168L76.6252 161.519L78.962 144.285Z" fill="#FF8E3C"/>
<path d="M202.521 56.9475L192.239 136.574L170.332 136.691L174.012 107.305H167.469L163.731 136.749L141.765 136.866L152.047 57.0644H174.012L169.923 88.2606H176.466L180.555 57.0059H202.463L202.521 56.9475Z" fill="white"/>
</svg>
