<svg width="936" height="175" viewBox="0 0 936 175" fill="none" xmlns="http://www.w3.org/2000/svg">
<g clip-path="url(#clip0_31_497)">
<rect width="936" height="175" fill="white"/>
<path d="M39.7138 8.06474L73.6909 8.00089C96.321 7.96896 111.525 8.79904 119.302 10.555C127.079 12.3109 133.007 16.8125 137.151 24.0597C141.263 31.307 142.314 42.8643 140.306 58.7635C138.458 73.2899 135.43 83.0274 131.254 88.0398C127.047 93.0522 119.652 96.0533 109.07 97.1068C118.25 99.4374 124.21 102.63 126.951 106.589C129.693 110.58 131.254 114.219 131.637 117.571C132.019 120.924 131.222 130.087 129.31 145.156L122.935 180.53H78.695L86.4722 132.577C87.7471 122.584 87.7471 116.422 86.4722 114.028C85.2291 111.665 81.2768 110.484 74.679 110.516L63.9695 180.53H16L39.7138 8.06474ZM83.6673 39.9271L78.4082 81.4311C83.7948 81.4311 87.6833 80.6648 90.0101 79.1324C92.3369 77.5999 94.058 72.7791 95.1099 64.5421L96.4167 54.2938C97.1816 48.3875 96.6079 44.4925 94.7592 42.6727C92.9106 40.821 89.2133 39.9271 83.6673 39.9271Z" fill="#152535"/>
<path d="M255.018 98.0966L196.244 98.1604L191.144 134.716C190.06 142.378 189.869 147.327 190.538 149.53C191.208 151.733 192.929 152.85 195.734 152.85C199.208 152.85 201.726 151.349 203.288 148.412C204.849 145.475 206.22 139.792 207.399 131.364L210.491 109.079L253.552 109.015L251.863 121.467C250.46 131.906 248.803 139.92 246.859 145.539C244.946 151.158 241.408 157.16 236.245 163.577C231.081 169.994 224.993 174.847 217.949 178.072C210.905 181.328 202.395 182.956 192.419 183.02C182.442 183.084 174.41 181.52 167.43 178.391C160.45 175.262 155.286 170.92 151.94 165.429C148.593 159.938 146.585 153.872 145.947 147.231C145.31 140.59 145.884 130.981 147.7 118.37L154.744 69.1395C156.848 54.4535 160.259 42.8962 165.008 34.4677C169.725 26.0392 176.418 19.5901 185.056 15.1524C193.694 10.7147 203.192 8.51175 213.551 8.54368C226.205 8.5756 236.277 11.3213 243.767 16.7168C251.257 22.1123 256.038 29.2638 258.142 38.2031C260.245 47.1105 260.214 59.6894 258.014 75.9079L255.018 98.1604V98.0966ZM213.328 70.7997L215.017 58.54C216.228 49.8881 216.579 44.301 216.101 41.7788C215.623 39.2566 214.125 38.0115 211.575 38.0115C208.451 38.0115 206.348 39.0651 205.296 41.2041C204.244 43.3432 203.065 49.1218 201.758 58.54L200.037 70.7997H213.296H213.328Z" fill="#152535"/>
<path d="M324.598 11.4809L322.016 27.1566C326.032 20.8991 330.622 16.206 335.754 13.0453C340.886 9.9165 346.559 8.32019 352.806 8.32019C360.615 8.32019 366.767 10.3954 371.261 14.5458C375.755 18.7281 378.337 23.9959 379.038 30.3492C379.739 36.7026 379.261 47.334 377.572 62.1796L364.121 180.498H318.829L331.865 63.744C333.204 52.0271 333.682 44.9076 333.268 42.3216C332.853 39.7355 331.132 38.4904 328.072 38.4904C324.853 38.4904 322.654 39.9909 321.475 42.9282C320.295 45.8654 318.988 53.783 317.554 66.5854L304.741 180.434H259.066L278.159 11.5767L324.598 11.4809Z" fill="#152535"/>
<path d="M449.574 8.70325L446.514 29.4553H458.753L455.694 53.4637H443.454L433.064 138.004C431.789 147.997 431.565 153.584 432.458 154.702C433.35 155.819 437.462 156.394 444.889 156.362L441.765 180.849L423.47 180.945C413.143 181.009 405.812 180.594 401.477 179.764C397.174 178.902 393.509 176.922 390.544 173.762C387.58 170.601 385.923 166.993 385.636 162.907C385.317 158.82 386.146 149.21 388.09 134.109L397.939 53.6872H388.154L391.214 29.6468H400.999L404.059 8.86288L449.606 8.7671L449.574 8.70325Z" fill="#152535"/>
<path d="M691.685 8.6394L669.628 180.179L622.519 180.434L630.488 117.125H616.431L608.431 180.498L561.227 180.753L583.283 8.86289L630.488 8.76711L621.659 76.0355H635.779L644.607 8.73518L691.716 8.6394H691.685Z" fill="#152535"/>
<path d="M812.867 9.02258L788.452 180.275H742.841L745.487 165.237C741.566 171.016 737.104 175.326 732.132 178.231C727.159 181.137 721.677 182.605 715.717 182.637C708.928 182.669 703.478 181.328 699.398 178.614C695.318 175.901 692.481 172.261 690.983 167.728C689.485 163.194 688.816 158.437 688.975 153.488C689.135 148.54 690.218 138.707 692.258 123.957L708.227 8.60754L753.742 8.70332L737.391 124.851C735.542 138.196 734.777 146.082 735.128 148.572C735.478 151.062 737.231 152.307 740.355 152.275C743.702 152.275 745.869 150.966 746.857 148.38C747.845 145.794 749.343 137.525 751.288 123.51L767.575 8.92681L812.867 9.02258Z" fill="#152535"/>
<path d="M873.045 8.73523L867.435 38.5223C871.706 34.1165 876.264 30.7962 881.077 28.6252C885.89 26.4542 890.99 25.3368 896.312 25.3368C902.464 25.3368 907.627 26.2946 911.899 28.2421C916.138 30.1896 919.229 32.9672 921.142 36.511C923.054 40.0548 924.01 43.5667 924.074 46.9508C924.138 50.335 923.437 57.6461 922.002 68.7883L913.269 136.759C911.835 147.838 910.082 156.074 907.946 161.502C905.811 166.929 901.827 171.654 895.994 175.645C890.161 179.636 883.595 181.679 876.264 181.711C871.005 181.711 866.256 180.594 862.017 178.263C857.777 175.933 854.048 172.421 850.893 167.728L846.526 180.466H804.549L828.135 8.83101L873.013 8.73523H873.045ZM876.933 70.9912C877.921 63.1693 878.113 58.0612 877.443 55.6986C876.774 53.3361 875.053 52.1229 872.248 52.1229C869.443 52.1229 867.594 53.1765 866.511 55.2836C865.427 57.3588 864.343 62.6266 863.26 71.0551L854.909 136.153C853.857 144.262 853.666 149.466 854.303 151.733C854.941 153.999 856.63 155.117 859.371 155.117C862.112 155.117 864.152 153.903 865.331 151.573C866.511 149.242 867.626 143.559 868.774 134.62L876.933 71.0232V70.9912Z" fill="#152535"/>
<path d="M477.941 8.51172L469.75 67.9263L492.476 90.4023L555.84 88.7741L559.219 65.883L514.755 66.777L565.02 26.3904L548.541 8.95869L498.054 50.3031L503.886 8.51172H477.941Z" fill="#FF8E3C"/>
<path d="M542.389 180.53L550.645 121.69L527.951 99.2458L464.618 100.842L461.271 123.733L505.703 122.839L455.534 163.098L471.981 180.434L522.373 139.281L516.253 180.53H542.389Z" fill="#FF8E3C"/>
</g>
<defs>
<clipPath id="clip0_31_497">
<rect width="936" height="175" fill="white"/>
</clipPath>
</defs>
</svg>
